<?xml version="1.0" encoding="utf-8"?>
<!-- Generator: Adobe Illustrator 28.1.0, SVG Export Plug-In . SVG Version: 6.00 Build 0)  -->
<svg version="1.1" id="Capa_1" xmlns="http://www.w3.org/2000/svg" xmlns:xlink="http://www.w3.org/1999/xlink" x="0px" y="0px"
	 viewBox="0 0 28.1 24.5" style="enable-background:new 0 0 28.1 24.5;" xml:space="preserve">
<style type="text/css">
	.st0{fill:#FFFFFF;stroke:#358717;stroke-width:1.5;stroke-miterlimit:10;}
</style>
<path class="st0" d="M14.4,2.5C11,3.1,7.6,3.6,4.2,4.2c-1.2,0.2-2,0.8-1.7,2c0.2,1.1,1.1,1.5,2.3,1.4c2.4-0.4,4.9-0.7,7.3-1
	c1.1-0.1,2.3,0,2.7,1.2c0.4,1.1-0.2,2.1-0.9,3c-0.9,1.1-1.8,0.4-2.7,0c-2-1-4.1-1.4-6.3-0.6c-0.8,0.3-1.5,0.7-1.5,1.7
	C3.6,13,4.5,13,5.3,13c2.5,0,4.3,1.4,6.2,3c2.6,2.3,6,3.7,8.4,6.3c0.3,0.4,0.8,0.5,1.2,0.1c0.1-0.1,0.3-0.2,0.5-0.3
	c1.7-1.1,4-1.9,4.8-3.4c0.8-1.7-1.8-2.9-2.6-4.6c-1.4-2.9-2.9-5.6-4.3-8.5C18.4,3.5,16.8,2.5,14.4,2.5z"/>
</svg>
