<svg width="50" height="50" viewBox="0 0 50 50" fill="none" xmlns="http://www.w3.org/2000/svg">
<g clip-path="url(#clip999)">
<path d="M29.1266 44.4028C39.8448 42.1233 46.6857 31.5865 44.4061 20.8683C42.1266 10.1501 31.5899 3.30918 20.8716 5.58872C10.1534 7.86826 3.31253 18.405 5.59207 29.1232C7.87161 39.8414 18.4084 46.6823 29.1266 44.4028Z" stroke="#333333" stroke-width="2.8" class="cenco_icon_dark_stroke"/>
<path d="M24.4245 33.5409H24.3586C24.0948 33.5356 23.8328 33.5843 23.5886 33.6841C23.3443 33.7839 23.1232 33.9327 22.9387 34.1213C22.7215 34.3213 22.5474 34.5635 22.4269 34.8331C22.3064 35.1027 22.2421 35.394 22.2378 35.6892C22.2336 35.9845 22.2895 36.2775 22.4022 36.5504C22.5149 36.8233 22.6821 37.0705 22.8934 37.2767C23.0941 37.4846 23.3348 37.6497 23.601 37.7622C23.8672 37.8746 24.1533 37.9321 24.4423 37.9311C25.027 37.9243 25.5858 37.689 25.9991 37.2754C26.4124 36.8618 26.6474 36.3029 26.6538 35.7182C26.6515 35.4285 26.5919 35.1422 26.4784 34.8757C26.3649 34.6091 26.1998 34.3677 25.9925 34.1653C25.7853 33.9629 25.54 33.8036 25.2709 33.6964C25.0018 33.5892 24.7141 33.5364 24.4245 33.5409Z" fill="#A4C735" stroke="#333333" class="cenco_icon_dark_2"/>
<path d="M18.6514 21.564H19.3538C19.675 21.5642 19.9835 21.4392 20.2141 21.2156C20.4446 20.992 20.5789 20.6873 20.5885 20.3663C20.5651 19.1266 20.9397 17.912 21.6573 16.9008C22.0199 16.4388 22.4899 16.0722 23.0265 15.8332C23.563 15.5941 24.1498 15.4896 24.7359 15.5289C25.2611 15.4873 25.7893 15.5523 26.2886 15.7202C26.788 15.8881 27.2483 16.1553 27.6416 16.5057C27.9601 16.8574 28.2051 17.2691 28.3625 17.7167C28.5199 18.1643 28.5864 18.6388 28.5581 19.1124C28.5459 19.8275 28.2981 20.5186 27.8529 21.0784C27.2554 21.7796 26.6065 22.4353 25.9116 23.0402C24.8661 23.9162 24.0187 25.0044 23.4257 26.2327C23.0225 27.0362 22.8156 27.9239 22.822 28.8229V29.9369C22.822 30.2644 22.9521 30.5785 23.1837 30.81C23.4152 31.0416 23.7293 31.1717 24.0568 31.1717H24.7592C25.0867 31.1717 25.4007 31.0416 25.6323 30.81C25.8639 30.5785 25.9939 30.2644 25.9939 29.9369V28.8229C25.9813 28.1661 26.181 27.5228 26.5633 26.9886C26.9828 26.3993 27.4782 25.8679 28.0368 25.4082C28.8821 24.6521 29.6751 23.8394 30.4102 22.9758C31.3486 21.6972 31.8112 20.1313 31.7183 18.5481C31.6254 16.9648 30.9827 15.4637 29.9012 14.3038C29.2203 13.6381 28.4091 13.1204 27.5185 12.7833C26.628 12.4462 25.6773 12.2968 24.7263 12.3447C23.6532 12.2897 22.583 12.4971 21.6081 12.9489C20.6333 13.4007 19.7832 14.0833 19.1316 14.9376C17.9876 16.4821 17.3792 18.358 17.3988 20.2799C17.3931 20.4456 17.4208 20.6107 17.4803 20.7655C17.5398 20.9202 17.6298 21.0614 17.7451 21.1806C17.8603 21.2998 17.9983 21.3946 18.151 21.4593C18.3036 21.524 18.4678 21.5573 18.6335 21.5572L18.6514 21.564Z" fill="#333333" class="cenco_icon_dark"/>
</g>
<defs>
<clipPath id="clip999">
<rect width="50" height="50" fill="white"/>
</clipPath>
</defs>
</svg>
