<svg width="32" height="32" viewBox="0 0 32 32" fill="none" xmlns="http://www.w3.org/2000/svg">
<path fill-rule="evenodd" clip-rule="evenodd" d="M11.9999 26.4078H11.9893C11.3489 26.4078 10.8367 26.92 10.8367 27.571C10.8367 28.222 11.3489 28.7343 11.9893 28.7343C12.6296 28.7343 13.1419 28.2114 13.1419 27.571V27.539C13.1419 27.2402 13.0245 26.9627 12.8004 26.7279C12.5762 26.5252 12.2988 26.4078 11.9999 26.4078Z" fill="#333333"/>
<path fill-rule="evenodd" clip-rule="evenodd" d="M11.9892 25.2904C12.256 25.2904 12.4801 25.173 12.6616 24.9809C12.8216 24.7888 12.907 24.5646 12.8964 24.3192V18.3854C12.8964 18.14 12.7896 17.9265 12.6082 17.7665C12.4374 17.6064 12.2027 17.521 11.9679 17.5317H11.9359C11.4343 17.5317 11.018 17.9479 10.9967 18.4495V24.3192C11.0287 24.8528 11.4556 25.2797 11.9892 25.2797V25.2904Z" fill="#333333"/>
<path fill-rule="evenodd" clip-rule="evenodd" d="M26.6528 25.7354C25.148 25.7354 23.9314 26.9627 23.9314 28.4568C23.9314 29.9509 25.1587 31.1783 26.6528 31.1783C28.1469 31.1783 29.3742 29.9509 29.3742 28.4568C29.3742 26.9627 28.1469 25.7354 26.6528 25.7354ZM26.6528 29.9616C25.8204 29.9616 25.148 29.2893 25.148 28.4568C25.148 27.6244 25.8204 26.9521 26.6528 26.9521C27.4852 26.9521 28.1576 27.6244 28.1576 28.4568C28.1576 29.2893 27.4852 29.9616 26.6528 29.9616Z" fill="#333333"/>
<path fill-rule="evenodd" clip-rule="evenodd" d="M19.5878 24.0172H28.5311C28.9793 24.0172 29.3422 23.6543 29.3315 23.2061C29.3315 22.9927 29.2461 22.7899 29.0967 22.6405C28.9473 22.4911 28.7445 22.4057 28.5311 22.4057H18.6806L16.8877 19.1934H25.767C27.005 19.2787 28.2003 18.8092 29.0434 17.9127C29.7477 17.0269 30.0786 15.9063 29.9505 14.7644V8.65989C29.9505 8.25435 29.641 7.91284 29.2461 7.85947L9.17172 5.28748V2.68346C9.17172 2.36329 8.97962 2.07514 8.69147 1.94708L4.43326 0.0687668C4.03839 -0.112661 3.54747 0.0794401 3.37672 0.474312C3.19529 0.879855 3.37671 1.34943 3.78226 1.53086L7.57089 3.2064V17.9981L2.39487 27.3469C2.12806 27.8165 2 28.3501 2 28.8944C2 29.7268 2.32017 30.5059 2.88579 31.0929C3.46209 31.6692 4.23049 32 5.0309 32H18.798C19.3317 32 19.8439 31.8506 20.3135 31.6051C21.7756 30.762 22.2879 28.8517 21.4661 27.3469L19.5985 23.9958L19.5878 24.0172ZM9.17172 6.931L9.38516 6.96301L28.339 9.3856V14.8071C28.339 14.8071 28.339 14.8818 28.339 14.9138C28.4137 15.6075 28.2216 16.2798 27.8267 16.8348C27.3145 17.3257 26.6635 17.5819 26.0018 17.5819C25.9164 17.5819 25.831 17.5819 25.7456 17.5712H15.9806L14.5398 14.9885L14.4224 14.7964L14.3691 14.7217L14.3157 14.6577C14.0703 14.3375 13.7608 14.0494 13.4086 13.8466C12.7042 13.4304 11.8611 13.313 11.0714 13.5371C10.2816 13.7612 9.61995 14.2735 9.20374 15.0099L9.15037 15.1059V6.94166L9.17172 6.931ZM19.6305 30.4312C19.3317 30.6019 19.0328 30.6873 18.7554 30.666H5.00956C4.53998 30.666 4.1131 30.4845 3.79293 30.1537C3.46209 29.8122 3.28066 29.364 3.28066 28.8944C3.28066 28.5849 3.36604 28.2861 3.51545 28.0086L10.3563 15.6502C10.5911 15.234 10.9646 14.9351 11.4129 14.8178C11.5943 14.7751 11.733 14.7537 11.8825 14.7537C12.1813 14.7537 12.4908 14.8391 12.7576 14.9992C13.0351 15.1699 13.2485 15.3941 13.3979 15.6609L20.2922 28.0086C20.7724 28.8624 20.4629 29.9509 19.6305 30.4312Z" fill="#333333"/>
</svg>
