<svg width="32" height="20" viewBox="0 0 32 20" fill="none" xmlns="http://www.w3.org/2000/svg">
<mask id="mask0_8204_51611" style="mask-type:luminance" maskUnits="userSpaceOnUse" x="0" y="0" width="32" height="20">
<path d="M3.84914 0H28.151C30.2643 0 32 1.68127 32 3.72805V16.0088C32 18.0556 30.2643 19.7368 28.151 19.7368H3.84914C1.73593 19.7368 0 18.0556 0 16.0088V3.72805C0 1.68127 1.66045 0 3.84914 0Z" fill="white"/>
</mask>
<g mask="url(#mask0_8204_51611)">
<mask id="mask1_8204_51611" style="mask-type:luminance" maskUnits="userSpaceOnUse" x="-6" y="-4" width="43" height="26">
<path d="M0.754791 -3.72754H30.5662C33.8869 -3.72754 36.6039 -2.11935 36.6039 -0.0725679V18.0561C36.6039 20.1029 33.8869 21.7111 30.5662 21.7111H0.754791C-2.56597 21.7111 -5.28296 20.1029 -5.28296 18.0561V-0.0725679C-5.28296 -2.11935 -2.56597 -3.72754 0.754791 -3.72754Z" fill="white"/>
</mask>
<g mask="url(#mask1_8204_51611)">
<path d="M36.6039 -3.72754H-5.28296V21.7111H36.6039V-3.72754Z" fill="#0500C4"/>
</g>
</g>
<path d="M5.84059 3.89212C5.99229 3.74241 6.06822 3.66756 6.29578 3.66756C6.59918 3.51786 6.90255 3.51786 7.20596 3.66756C7.35766 3.74242 7.50944 3.81726 7.66115 3.89212L8.0404 4.26639L8.79892 3.51785L8.41966 3.14358C8.19211 2.91902 7.96455 2.7693 7.66115 2.61959C7.13018 2.39503 6.52333 2.39503 5.91652 2.61959C5.61311 2.69445 5.38555 2.91902 5.158 3.14358C4.93044 3.36814 4.77878 3.5927 4.62707 3.89212C4.55122 4.19153 4.47522 4.49093 4.47522 4.71549C4.47522 4.94005 4.55122 5.31435 4.62707 5.53891C4.70292 5.83832 4.93044 6.06289 5.158 6.28745C5.38555 6.51201 5.61311 6.66168 5.91652 6.81139C6.21992 6.88624 6.52322 6.9611 6.75078 6.9611C6.97833 6.9611 7.35766 6.88624 7.58522 6.81139C7.88863 6.66168 8.11618 6.51201 8.34374 6.28745L8.723 5.91318L7.96448 5.16464L7.58522 5.53891C7.43352 5.68862 7.35766 5.76346 7.20596 5.76346C7.05426 5.83832 6.90248 5.8383 6.75078 5.8383C6.37152 5.8383 6.14407 5.68859 5.91652 5.46403C5.76481 5.31432 5.68892 5.23948 5.68892 5.01492C5.61307 4.86522 5.613 4.71548 5.613 4.56577C5.613 4.41607 5.61307 4.26638 5.68892 4.11667C5.68892 4.11667 5.76474 4.04182 5.84059 3.89212Z" fill="white"/>
<path d="M12.8948 3.14358C12.6673 2.91902 12.4397 2.7693 12.1363 2.61959C11.6053 2.39503 10.9985 2.39503 10.3917 2.61959C10.0883 2.69445 9.86071 2.91902 9.63315 3.14358C9.4056 3.36814 9.25393 3.5927 9.10223 3.89212C9.02638 4.19153 8.95056 4.49093 8.95056 4.71549C8.95056 4.94005 9.02638 5.31435 9.10223 5.53891C9.17808 5.83832 9.4056 6.06289 9.63315 6.28745C9.86071 6.51201 10.0883 6.66168 10.3917 6.81139C10.6951 6.96109 10.9986 6.9611 11.2261 6.9611C11.5295 6.9611 11.8328 6.88624 12.0604 6.81139C12.3638 6.66168 12.5913 6.51201 12.8189 6.28745L13.1982 5.91318L12.4396 5.16464L12.0604 5.53891C11.8328 5.76347 11.6053 5.83832 11.3778 5.91318C11.3019 5.91318 11.226 5.91318 11.1502 5.91318C10.9985 5.91318 10.8469 5.91315 10.6952 5.8383L13.1224 3.44297L12.8948 3.14358ZM11.3019 3.51785C11.4536 3.51785 11.6053 3.51783 11.757 3.59268C11.6812 3.66754 11.6054 3.74241 11.4537 3.89212L10.1641 5.16464C10.1641 5.01493 10.0883 4.94008 10.0883 4.79037C10.0883 4.4161 10.24 4.19151 10.4676 3.96695C10.6952 3.74239 10.9226 3.66754 11.1502 3.59268C11.1502 3.51783 11.226 3.51785 11.3019 3.51785Z" fill="white"/>
<path d="M17.522 3.14394C17.2944 2.91938 17.0669 2.76964 16.7634 2.69479C16.2325 2.47023 15.5498 2.47023 15.0188 2.69479C14.7154 2.8445 14.4878 2.99423 14.2603 3.14394C14.0327 3.3685 13.881 3.59306 13.8051 3.89248C13.6534 4.11704 13.6534 4.49132 13.6534 4.79073V7.03634H14.7153V4.79073C14.7153 4.64102 14.7154 4.49129 14.7912 4.34158C14.8671 4.19187 14.943 4.04217 15.0188 3.96731C15.1705 3.8176 15.2464 3.74276 15.3981 3.74276C15.7015 3.59305 16.0049 3.59305 16.3842 3.74276C16.5359 3.81761 16.6876 3.89246 16.7634 3.96731C16.8393 4.04217 16.9909 4.19187 16.9909 4.34158C17.0667 4.49129 17.0668 4.64102 17.0668 4.79073V7.03634H18.1286V4.79073C18.1286 4.49132 18.0529 4.19189 17.9012 3.89248C17.9012 3.59306 17.7495 3.3685 17.522 3.14394Z" fill="white"/>
<path d="M19.9491 3.89212C20.1008 3.74241 20.1766 3.66756 20.4041 3.66756C20.7075 3.51786 21.0111 3.51786 21.3145 3.66756C21.4662 3.74242 21.6178 3.81726 21.7695 3.89212L22.1487 4.26639L22.9073 3.51785L22.528 3.14358C22.3004 2.91902 22.0729 2.7693 21.7695 2.61959C21.2385 2.39503 20.6317 2.39503 20.0249 2.61959C19.7214 2.69445 19.4939 2.91902 19.2663 3.14358C19.0388 3.36814 18.8871 3.5927 18.7354 3.89212C18.6596 4.19153 18.5837 4.49093 18.5837 4.71549C18.5837 4.94005 18.6596 5.31435 18.7354 5.53891C18.8113 5.83832 19.0388 6.06289 19.2663 6.28745C19.4939 6.51201 19.7214 6.66168 20.0249 6.81139C20.3283 6.88624 20.6317 6.9611 20.8593 6.9611C21.0869 6.9611 21.4662 6.88624 21.6937 6.81139C21.9971 6.66168 22.2247 6.51201 22.4523 6.28745L22.8315 5.91318L22.073 5.16464L21.6937 5.53891C21.542 5.68862 21.4662 5.76346 21.3145 5.76346C21.1628 5.83832 21.011 5.8383 20.8593 5.8383C20.48 5.8383 20.2524 5.68859 20.0249 5.46403C19.8731 5.31432 19.7974 5.23948 19.7974 5.01492C19.7216 4.86522 19.7215 4.71548 19.7215 4.56577C19.7215 4.41607 19.7216 4.26638 19.7974 4.11667C19.7216 4.11667 19.7974 4.04182 19.9491 3.89212Z" fill="white"/>
<path d="M27.0034 3.14394C26.7759 2.91938 26.5483 2.76964 26.2449 2.69479C25.7139 2.47023 25.0312 2.47023 24.5003 2.69479C24.1969 2.8445 23.9693 2.99423 23.7417 3.14394C23.5142 3.3685 23.3624 3.59306 23.2866 3.89248C23.1349 4.11704 23.1349 4.49132 23.1349 4.79073C23.1349 5.09015 23.2107 5.38953 23.2866 5.68894C23.4383 5.98836 23.59 6.21292 23.7417 6.43748C23.9693 6.66204 24.1969 6.81176 24.5003 6.96146C24.8037 7.11117 25.107 7.11118 25.4104 7.11118C25.7139 7.11118 26.0172 7.03632 26.3206 6.96146C26.624 6.81176 26.8516 6.66204 27.0791 6.43748C27.3067 6.21292 27.4585 5.98836 27.5343 5.68894C27.686 5.38953 27.7619 5.09015 27.7619 4.79073C27.7619 4.49132 27.686 4.19189 27.5343 3.89248C27.3826 3.59306 27.231 3.3685 27.0034 3.14394ZM26.5482 4.71585C26.5482 4.86556 26.5481 5.01529 26.4723 5.165C26.3964 5.31471 26.3207 5.46442 26.2449 5.53927C26.169 5.61412 26.0173 5.76382 25.8656 5.76382C25.5622 5.91353 25.1829 5.91353 24.8795 5.76382C24.7278 5.68897 24.5761 5.61412 24.5003 5.53927C24.4244 5.38956 24.2727 5.31471 24.2727 5.165C24.1968 5.01529 24.1967 4.86556 24.1967 4.71585C24.1967 4.56614 24.1968 4.41645 24.2727 4.26675C24.3485 4.11704 24.4244 3.96733 24.5003 3.89248C24.652 3.74277 24.7278 3.66792 24.8795 3.66792C25.0312 3.59307 25.1828 3.59304 25.3345 3.59304C25.4862 3.59304 25.638 3.59307 25.7897 3.66792C25.9414 3.74278 26.0931 3.81762 26.169 3.89248C26.3207 3.96733 26.3966 4.11704 26.3966 4.26675C26.3966 4.41645 26.5482 4.56614 26.5482 4.71585Z" fill="white"/>
<path d="M19.4182 11.452V8.15851H17.9012V8.60761C17.2944 8.23334 16.6116 8.00879 15.929 8.00879C14.0327 8.00879 12.4397 9.5807 12.4397 11.452C12.4397 13.3234 14.0327 14.8953 15.929 14.8953C16.6875 14.8953 17.3702 14.6707 17.9012 14.2965V14.7456H19.4182V11.452ZM15.929 13.4731C14.867 13.4731 13.9567 12.5749 13.9567 11.5269C13.9567 10.479 14.867 9.5807 15.929 9.5807C16.9909 9.5807 17.9012 10.479 17.9012 11.5269C17.9012 12.5749 16.9909 13.4731 15.929 13.4731Z" fill="#FFAC2C"/>
<path d="M25.7897 8.15918V11.0036V11.4527C25.7897 12.5007 24.8794 13.3989 23.8174 13.3989C22.7555 13.3989 21.8454 12.5007 21.8454 11.4527V8.15918H20.3284V11.4527C20.3284 12.6504 20.9352 13.6983 21.8454 14.2972C22.4522 14.6714 23.1348 14.896 23.8174 14.896C24.5001 14.896 25.2587 14.6714 25.7897 14.2972C25.7897 15.3451 24.8794 16.2434 23.8174 16.2434H23.1349V17.7405H23.8174C24.576 17.7405 25.2587 17.5159 25.7897 17.1416C26.6999 16.5428 27.3067 15.4948 27.3067 14.2972V11.4527V11.0036V8.15918H25.7897Z" fill="#00C7F9"/>
<path d="M8.34375 8.00879C6.52331 8.00879 5.0062 9.35617 4.85449 11.1527V17.7398H6.37153V14.3714C6.97834 14.7456 7.66108 14.9702 8.34375 14.9702C10.24 14.9702 11.833 13.3983 11.833 11.5269C11.833 9.58073 10.24 8.00879 8.34375 8.00879ZM8.34375 13.4731C7.28183 13.4731 6.37153 12.5749 6.37153 11.5269C6.37153 10.479 7.28183 9.5807 8.34375 9.5807C9.40568 9.5807 10.316 10.479 10.316 11.5269C10.316 12.5749 9.40568 13.4731 8.34375 13.4731Z" fill="#F04B67"/>
</svg>
