<svg width="50" height="50" viewBox="0 0 50 50" fill="none" xmlns="http://www.w3.org/2000/svg">
<path d="M25.1798 16.0736C28.5266 16.0736 31.2397 13.3708 31.2397 10.0368C31.2397 6.70277 28.5266 4 25.1798 4C21.833 4 19.1199 6.70277 19.1199 10.0368C19.1199 13.3708 21.833 16.0736 25.1798 16.0736Z"  fill="#A4C735" class="cenco_icon_dark_2"/>
<path d="M21.5061 39.4736C21.9583 39.4736 22.3249 39.1084 22.3249 38.6579C22.3249 38.2075 21.9583 37.8423 21.5061 37.8423C21.0539 37.8423 20.6874 38.2075 20.6874 38.6579C20.6874 39.1084 21.0539 39.4736 21.5061 39.4736Z" fill="#333333" class="cenco_icon_dark"/>
<path d="M28.5195 39.4736C28.9717 39.4736 29.3382 39.1084 29.3382 38.6579C29.3382 38.2075 28.9717 37.8423 28.5195 37.8423C28.0673 37.8423 27.7007 38.2075 27.7007 38.6579C27.7007 39.1084 28.0673 39.4736 28.5195 39.4736Z" fill="#333333" class="cenco_icon_dark"/>
<path d="M42.9994 24.9423V20.4912L41.7875 13.1223C41.6413 12.2533 41.1931 11.4632 40.5213 10.8901C39.8495 10.317 38.9969 9.99738 38.1124 9.98716H31.666L31.6445 9.84496C31.5786 9.37814 31.4667 8.91892 31.3105 8.47394L31.2836 8.40418L31.3186 8.33844C31.4814 8.04118 31.5679 7.70847 31.5704 7.36987C31.5696 7.06105 31.5001 6.75625 31.3667 6.47745C31.2334 6.19865 31.0396 5.9528 30.7994 5.75762C30.5591 5.56243 30.2784 5.42279 29.9774 5.34874C29.6765 5.2747 29.3628 5.26811 29.0589 5.32944L28.9849 5.34419L28.9256 5.30126C27.7769 4.45903 26.3887 4.00323 24.9624 4C23.3298 4.00933 21.7555 4.60527 20.5286 5.67833C19.3018 6.75138 18.5049 8.22946 18.2844 9.84093L18.2642 9.98716H11.8124C10.9244 9.98201 10.0643 10.2961 9.38994 10.8717C8.71562 11.4474 8.27233 12.2459 8.14141 13.1209C7.19875 19.0772 7.01426 20.4442 7.01965 20.7219L7.00618 24.9423C7.00706 25.6466 7.20367 26.3369 7.57424 26.9366C7.9448 27.5364 8.47484 28.0223 9.10561 28.3404L9.19853 28.386V41.6669C9.20137 42.8158 9.66088 43.9169 10.4765 44.7292C11.2922 45.5414 12.3976 45.9989 13.5509 46.0013H36.4561C37.6092 45.9985 38.7142 45.5409 39.5296 44.7287C40.3449 43.9164 40.8043 42.8156 40.8071 41.6669V28.386L40.9 28.339C41.5303 28.0207 42.0599 27.535 42.4304 26.9355C42.8009 26.3361 42.9979 25.6463 42.9994 24.9423ZM19.9717 9.78325C20.1972 8.62924 20.8183 7.58917 21.7287 6.84106C22.6391 6.09295 23.7822 5.68331 24.9624 5.68225C25.8472 5.68664 26.715 5.92406 27.478 6.37045L27.6059 6.44423L27.5493 6.57838C27.4179 6.8945 27.3669 7.23804 27.4007 7.57852C27.4345 7.91901 27.5521 8.24593 27.7431 8.53028C27.9341 8.81464 28.1926 9.04765 28.4956 9.20865C28.7987 9.36965 29.137 9.45366 29.4804 9.45324C29.5314 9.45165 29.5822 9.44672 29.6326 9.43848L29.8575 9.41165L29.8938 9.55385C29.9073 9.60751 29.9167 9.66117 29.9262 9.71483L29.9396 9.78727C30.0097 10.1019 30.0467 10.4229 30.0501 10.7451C30.0441 11.2276 29.9675 11.7067 29.8225 12.1671C29.5194 13.218 28.8813 14.1421 28.0045 14.7999C27.1278 15.4577 26.06 15.8135 24.9624 15.8135C23.8648 15.8135 22.797 15.4577 21.9203 14.7999C21.0435 14.1421 20.4054 13.218 20.1024 12.1671C19.8511 11.3993 19.8047 10.5797 19.9677 9.78862L19.9717 9.78325ZM10.1062 13.4053C10.168 13.0008 10.3728 12.6315 10.6836 12.364C10.9944 12.0964 11.3908 11.9481 11.8016 11.9458H18.2992L18.3275 12.0799C18.6375 13.6052 19.4675 14.9767 20.6768 15.9619C21.8861 16.947 23.4002 17.4853 24.9624 17.4853C26.5246 17.4853 28.0387 16.947 29.248 15.9619C30.4573 14.9767 31.2873 13.6052 31.5974 12.0799L31.6243 11.9458H38.1178C38.5287 11.948 38.9253 12.096 39.2366 12.3632C39.5478 12.6305 39.7532 12.9995 39.816 13.404L40.8044 19.7694H9.11907L10.1062 13.4053ZM35.3545 21.7401V24.9343C35.3453 25.4091 35.1528 25.8621 34.817 26.1991C34.4812 26.5361 34.0279 26.7313 33.5513 26.744H33.5042C33.0235 26.7408 32.5627 26.5524 32.2183 26.2183C31.8739 25.8842 31.6726 25.4303 31.6566 24.9517V21.7455L35.3545 21.7401ZM29.6838 21.7401V24.9343C29.6746 25.4091 29.4821 25.8621 29.1462 26.1991C28.8104 26.5361 28.3571 26.7313 27.8806 26.744H27.8375C27.3562 26.7414 26.8947 26.5531 26.5499 26.2187C26.2051 25.8842 26.0039 25.4296 25.9886 24.9504V21.7455L29.6838 21.7401ZM23.9363 21.7401V24.9343C23.9278 25.4088 23.7358 25.8618 23.4005 26.1989C23.0651 26.536 22.6121 26.7313 22.1358 26.744H22.1048C21.6192 26.7508 21.1506 26.5661 20.8012 26.2301C20.4518 25.8941 20.25 25.434 20.2397 24.9504V21.7455L23.9363 21.7401ZM18.2655 21.7401V24.9343C18.2567 25.4089 18.0645 25.8619 17.7289 26.199C17.3932 26.5361 16.9401 26.7313 16.4637 26.744H16.4166C15.9346 26.7441 15.4717 26.5567 15.1265 26.2216C14.7813 25.8865 14.5813 25.4303 14.569 24.9504V21.7455L18.2655 21.7401ZM10.7633 26.744C10.278 26.7504 9.80971 26.5656 9.4606 26.2296C9.11149 25.8936 8.90983 25.4338 8.89957 24.9504V21.7455H12.5948V24.9396C12.5846 25.4131 12.3919 25.8646 12.0568 26.2005C11.7216 26.5364 11.2696 26.731 10.7943 26.744H10.7633ZM24.1585 44.1125H16.3075V35.0171C16.2785 34.4428 16.479 33.8805 16.8651 33.4531C17.2512 33.0257 17.7915 32.768 18.3679 32.7365H24.1585V44.1125ZM33.1016 44.1125H25.8418V32.7365H31.0412C31.6174 32.7684 32.1575 33.0261 32.5435 33.4534C32.9296 33.8808 33.1302 34.4429 33.1016 35.0171V44.1125ZM38.8343 41.7447C38.8276 42.3705 38.5747 42.9687 38.13 43.4107C37.6853 43.8527 37.0842 44.1032 36.4561 44.1085H34.7849V35.013C34.8128 33.9947 34.4345 33.0069 33.7328 32.2659C33.0311 31.5249 32.0633 31.0912 31.0412 31.0596H18.3679C17.3458 31.0912 16.3779 31.5249 15.6762 32.2659C14.9746 33.0069 14.5963 33.9947 14.6242 35.013V44.1085H13.3166C12.6878 44.1032 12.0863 43.8521 11.6417 43.4092C11.1971 42.9662 10.945 42.367 10.9397 41.7407V28.7562L11.0865 28.7374C11.9162 28.6325 12.6862 28.2521 13.2721 27.6575L13.392 27.5354L13.5118 27.6575C13.8708 28.0231 14.2988 28.3145 14.7712 28.5148C15.2436 28.7151 15.751 28.8204 16.2644 28.8246C16.7787 28.827 17.2882 28.7249 17.7616 28.5247C18.2351 28.3245 18.6627 28.0304 19.0183 27.6602L19.1382 27.5341L19.2607 27.6589C19.6196 28.0241 20.0474 28.3151 20.5196 28.5151C20.9917 28.7152 21.4989 28.8204 22.0119 28.8246C22.5249 28.8268 23.0329 28.7251 23.5051 28.5256C23.9774 28.3261 24.404 28.033 24.7591 27.6642L24.8803 27.5381L25.0015 27.6629C25.0688 27.7313 25.1361 27.797 25.2075 27.8601C25.9431 28.5198 26.9077 28.868 27.8968 28.8309C28.8858 28.7939 29.8215 28.3744 30.5052 27.6616L30.6264 27.5368L30.7476 27.6616C30.8136 27.7313 30.8823 27.7957 30.9537 27.8614C31.6899 28.5204 32.6548 28.868 33.6438 28.8307C34.6329 28.7934 35.5686 28.3741 36.2527 27.6616L36.3726 27.5381L36.4951 27.6616C37.0805 28.2549 37.8505 28.6332 38.6794 28.7348L38.8275 28.7535L38.8343 41.7447ZM41.0253 24.9477C41.0127 25.4201 40.8186 25.8698 40.4832 26.204C40.1477 26.5381 39.6964 26.7314 39.2221 26.744H39.175C38.6943 26.7408 38.2334 26.5524 37.889 26.2183C37.5446 25.8842 37.3433 25.4303 37.3274 24.9517V21.7455H41.0253V24.9477Z" fill="#333333"  class="cenco_icon_dark"/>
</svg>
