<svg width="32" height="20" viewBox="0 0 32 20" fill="none" xmlns="http://www.w3.org/2000/svg">
<rect width="32" height="20" rx="3" fill="white"/>
<path d="M15.9533 9.02452C15.9533 8.47628 15.5975 8.0918 15.0881 8.0918C14.5787 8.0918 14.2229 8.47628 14.2229 9.02452C14.2229 9.5724 14.5787 9.95724 15.0881 9.95724C15.5975 9.95724 15.9533 9.57276 15.9533 9.02452Z" fill="black"/>
<path fill-rule="evenodd" clip-rule="evenodd" d="M8.47594 12.761C8.47594 14.0436 7.5663 15.0315 6.31857 15.0315C5.93721 15.0315 5.59944 14.9363 5.29623 14.7628V16.2275H3.59771V12.2498C3.59771 12.068 3.52828 11.9724 3.39847 11.9724C3.3552 11.9724 3.31193 11.9898 3.28578 12.0156L3.1818 11.9549L3 10.8284L3.06071 10.707C3.31193 10.5597 3.5806 10.4902 3.89253 10.4902C4.30844 10.4902 4.6898 10.6637 4.90615 11.0361C5.27879 10.7066 5.76381 10.4902 6.31857 10.4902C7.55759 10.4902 8.47595 11.4782 8.47595 12.761L8.47594 12.761ZM6.7431 12.7604C6.7431 12.2662 6.42245 11.9197 5.96326 11.9197C5.50408 11.9197 5.18343 12.2662 5.18343 12.7604C5.18343 13.2542 5.50408 13.6011 5.96326 13.6011C6.42245 13.6011 6.7431 13.2542 6.7431 12.7604Z" fill="black"/>
<path d="M12.8164 10.8284L12.5044 12.0156L12.4005 12.0763C12.1492 11.9636 11.9845 11.9204 11.7507 11.9204C11.3868 11.9204 11.0316 12.1545 11.0316 12.6745V14.9275H9.33343V12.2498C9.33343 12.068 9.264 11.9724 9.13419 11.9724C9.09092 11.9724 9.04765 11.9898 9.0215 12.0156L8.91752 11.9549L8.73572 10.8284L8.79643 10.707C9.04765 10.5597 9.31631 10.4902 9.62825 10.4902C10.0096 10.4902 10.3474 10.6637 10.5553 11.0189C10.9105 10.6808 11.3697 10.4902 11.855 10.4902C12.1928 10.4902 12.4702 10.5597 12.7563 10.707L12.8164 10.8284Z" fill="black"/>
<path d="M15.1292 14.9277V10.5947H13.431V14.9277H15.1292Z" fill="black"/>
<path d="M23.7713 12.3971V14.9275H22.0731V12.5185C22.0731 12.1545 21.8739 11.9204 21.5358 11.9204C21.1893 11.9204 20.9984 12.1545 20.9984 12.5185V14.9275H19.3002V12.5185C19.3002 12.1545 19.1184 11.9204 18.7629 11.9204C18.4164 11.9204 18.2256 12.1545 18.2256 12.5185V14.9275H16.5274V12.2498C16.5274 12.068 16.458 11.9724 16.3369 11.9724C16.2849 11.9724 16.2416 11.9898 16.2155 12.0156L16.1115 11.9549L15.9297 10.8284L15.9904 10.707C16.2416 10.5597 16.519 10.4902 16.7961 10.4902C17.1945 10.4902 17.5585 10.6375 17.7926 10.9408C18.1565 10.6721 18.6244 10.4902 19.153 10.4902C19.6903 10.4902 20.1582 10.6721 20.4786 11.0102C20.8599 10.6982 21.3536 10.4902 21.9255 10.4902C23.0002 10.4902 23.7713 11.2269 23.7713 12.3971H23.7713Z" fill="black"/>
<path fill-rule="evenodd" clip-rule="evenodd" d="M25.8807 13.1593C25.9502 13.636 26.3919 13.8352 26.8859 13.8352C27.3019 13.8352 27.6658 13.6967 27.9257 13.4454H28.0471L28.7575 14.1472V14.2687C28.2464 14.8407 27.4578 15.0312 26.782 15.0312C25.439 15.0312 24.252 14.2687 24.252 12.7694C24.252 11.4349 25.1965 10.4902 26.6435 10.4902C28.0558 10.4902 29.0001 11.4 29.0001 12.7694C29.0001 12.8993 28.9913 13.0294 28.9655 13.1593L25.8807 13.1593ZM25.8724 12.3804H27.38C27.3713 11.9299 27.0681 11.6266 26.6264 11.6266C26.1843 11.6263 25.8811 11.9299 25.8724 12.3804Z" fill="black"/>
<path d="M28.3674 8.88367L26.3561 7.37263C26.2164 7.26785 26.0115 7.26428 25.8678 7.3646L23.6219 8.92647C23.3706 9.10126 23 8.94476 23 8.66386V3.3353C23 3.15026 23.1718 3 23.3833 3H28.6167C28.8282 3 29 3.15026 29 3.3353V8.62864C29.0005 8.91578 28.6162 9.07049 28.3674 8.88367Z" fill="#FA3FCA"/>
</svg>
