<svg width="50" height="50" viewBox="0 0 50 50" fill="none" xmlns="http://www.w3.org/2000/svg">
<path d="M42.9517 4.203H7.04554C6.82144 4.203 6.60649 4.29222 6.44789 4.45106C6.2893 4.6099 6.20002 4.82539 6.19966 5.0502V13.2366C6.20038 13.4612 6.28981 13.6764 6.44837 13.8349C6.60692 13.9935 6.82167 14.0825 7.04554 14.0825H8.65097V36.3682H8.68065C8.68065 36.3682 16.8467 36.4155 25.0128 36.4399C29.106 36.4534 32.1833 36.4602 34.497 36.4602C38.9962 36.4602 40.7028 36.4345 41.2424 36.3601H41.2667H41.2802C41.313 36.3546 41.3454 36.3474 41.3773 36.3384L41.3598 36.2152L41.3504 14.0825H42.9531C43.1772 14.0825 43.3922 13.9933 43.5508 13.8344C43.7093 13.6756 43.7986 13.4601 43.799 13.2353V5.0502C43.7988 4.93877 43.7767 4.82846 43.7341 4.72558C43.6914 4.6227 43.6289 4.52925 43.5503 4.45058C43.4716 4.37191 43.3782 4.30956 43.2756 4.26708C43.1729 4.2246 43.0628 4.20283 42.9517 4.203ZM39.6532 34.6386H10.336V14.0825H39.6532V34.6386ZM42.1018 12.3894H7.88738V5.89334H42.1018V12.3894Z" fill="#333333" stroke="#333333" class="cenco_icon_dark"  stroke-width="0.3"/>
<path d="M20.4124 17.4713H29.3272C29.4511 17.4761 29.5747 17.4557 29.6905 17.4114C29.8064 17.3671 29.9121 17.2999 30.0014 17.2136C30.0908 17.1274 30.1618 17.024 30.2104 16.9095C30.2589 16.7951 30.2839 16.672 30.2839 16.5476C30.2839 16.4233 30.2589 16.3002 30.2104 16.1857C30.1618 16.0713 30.0908 15.9679 30.0014 15.8816C29.9121 15.7954 29.8064 15.7281 29.6905 15.6839C29.5747 15.6396 29.4511 15.6192 29.3272 15.624H20.4124C20.2885 15.6192 20.165 15.6396 20.0491 15.6839C19.9333 15.7281 19.8275 15.7954 19.7382 15.8816C19.6489 15.9679 19.5778 16.0713 19.5293 16.1857C19.4807 16.3002 19.4557 16.4233 19.4557 16.5476C19.4557 16.672 19.4807 16.7951 19.5293 16.9095C19.5778 17.024 19.6489 17.1274 19.7382 17.2136C19.8275 17.2999 19.9333 17.3671 20.0491 17.4114C20.165 17.4557 20.2885 17.4761 20.4124 17.4713Z" fill="#333333" class="cenco_icon_dark"/>
<path d="M24.9993 30.4568C23.6502 30.4568 22.3315 30.8581 21.2098 31.61C20.088 32.3618 19.2138 33.4305 18.6975 34.6808C18.1812 35.9311 18.0462 37.3069 18.3094 38.6343C18.5725 39.9616 19.2222 41.1808 20.1761 42.1378C21.1301 43.0947 22.3454 43.7464 23.6686 44.0104C24.9918 44.2744 26.3632 44.1389 27.6096 43.621C28.856 43.1031 29.9213 42.2261 30.6708 41.1009C31.4203 39.9756 31.8203 38.6527 31.8203 37.2993C31.8182 35.4852 31.0989 33.7461 29.8201 32.4633C28.5414 31.1805 26.8077 30.4589 24.9993 30.4568Z" fill="#A4C735" class="cenco_icon_dark_2"/>
<path d="M24.9993 28.8016C23.3239 28.8016 21.6861 29.3 20.2931 30.2338C18.9 31.1675 17.8143 32.4947 17.1732 34.0474C16.532 35.6002 16.3643 37.3088 16.6911 38.9572C17.018 40.6056 17.8247 42.1197 19.0094 43.3081C20.1941 44.4966 21.7035 45.3059 23.3467 45.6338C24.9899 45.9617 26.6931 45.7934 28.241 45.1502C29.7889 44.507 31.1119 43.4179 32.0427 42.0204C32.9735 40.623 33.4703 38.98 33.4703 37.2993C33.4678 35.0464 32.5745 32.8864 30.9864 31.2933C29.3984 29.7002 27.2452 28.8041 24.9993 28.8016ZM24.9993 44.1419C23.6502 44.1419 22.3314 43.7406 21.2096 42.9886C20.0879 42.2367 19.2136 41.168 18.6974 39.9176C18.1811 38.6672 18.0461 37.2913 18.3094 35.9639C18.5727 34.6366 19.2225 33.4173 20.1766 32.4604C21.1307 31.5036 22.3462 30.852 23.6694 30.5881C24.9927 30.3242 26.3642 30.4599 27.6105 30.978C28.8569 31.4961 29.9221 32.3734 30.6715 33.4988C31.4208 34.6242 31.8206 35.9473 31.8203 37.3007C31.8182 39.1147 31.0988 40.8537 29.8201 42.1363C28.5413 43.4188 26.8076 44.1401 24.9993 44.1419Z" fill="#333333" stroke="#333333" class="cenco_icon_dark" stroke-width="0.3"/>
<path d="M24.7929 38.7258C24.6234 38.7346 24.4573 38.6758 24.3309 38.5622C24.2045 38.4486 24.1281 38.2894 24.1184 38.1195V33.6182C24.1184 33.4387 24.1894 33.2666 24.3159 33.1397C24.4424 33.0128 24.614 32.9415 24.7929 32.9415C24.9718 32.9415 25.1434 33.0128 25.2699 33.1397C25.3964 33.2666 25.4675 33.4387 25.4675 33.6182V38.1195C25.4577 38.2894 25.3813 38.4486 25.2549 38.5622C25.1285 38.6758 24.9624 38.7346 24.7929 38.7258Z" fill="#333333" stroke="#333333" class="cenco_icon_dark" stroke-width="0.3"/>
<path d="M24.7929 41.53C25.1647 41.53 25.4661 41.2276 25.4661 40.8546C25.4661 40.4817 25.1647 40.1793 24.7929 40.1793C24.4211 40.1793 24.1197 40.4817 24.1197 40.8546C24.1197 41.2276 24.4211 41.53 24.7929 41.53Z" fill="#333333" stroke="#333333" class="cenco_icon_dark" stroke-width="0.3"/>
<path d="M24.7929 41.6206C24.6419 41.6206 24.4943 41.5757 24.3687 41.4915C24.2431 41.4074 24.1452 41.2877 24.0874 41.1478C24.0297 41.0078 24.0145 40.8538 24.044 40.7052C24.0735 40.5566 24.1462 40.4201 24.253 40.313C24.3598 40.2059 24.4958 40.1329 24.6439 40.1033C24.7921 40.0738 24.9456 40.089 25.0851 40.1469C25.2246 40.2049 25.3439 40.3031 25.4278 40.4291C25.5117 40.555 25.5565 40.7031 25.5565 40.8546C25.5565 41.0578 25.476 41.2526 25.3328 41.3963C25.1896 41.5399 24.9954 41.6206 24.7929 41.6206ZM24.7929 40.2673C24.6774 40.2673 24.5644 40.3016 24.4684 40.366C24.3723 40.4304 24.2974 40.5219 24.2532 40.629C24.209 40.7361 24.1974 40.8539 24.22 40.9676C24.2425 41.0813 24.2981 41.1857 24.3798 41.2676C24.4615 41.3496 24.5656 41.4054 24.6789 41.428C24.7923 41.4506 24.9097 41.439 25.0165 41.3947C25.1232 41.3503 25.2144 41.2752 25.2786 41.1788C25.3428 41.0825 25.3771 40.9692 25.3771 40.8533C25.376 40.6984 25.314 40.5503 25.2046 40.441C25.0952 40.3318 24.9473 40.2703 24.7929 40.27V40.2673Z" fill="#333333" stroke="#333333" class="cenco_icon_dark" stroke-width="0.3"/>
</svg>
