<svg width="50" height="50" viewBox="0 0 50 50" fill="none" xmlns="http://www.w3.org/2000/svg">
<g clip-path="url(#clip9999)">
<path d="M45.6359 44.8637L35.4343 34.6634C38.4802 31.1597 40.0467 26.6105 39.8036 21.9745C39.5605 17.3386 37.5267 12.9781 34.1311 9.81208C30.7354 6.64609 26.2431 4.92192 21.6009 5.00298C16.9587 5.08404 12.5293 6.96399 9.24623 10.2466C5.9632 13.5292 4.08301 17.9581 4.00194 22.5997C3.92087 27.2413 5.64526 31.7331 8.81166 35.1283C11.9781 38.5235 16.3391 40.557 20.9756 40.8C25.6122 41.0431 30.162 39.4768 33.6662 36.4313L43.8678 46.6357C44.1043 46.8713 44.4246 47.0038 44.7585 47.004C44.9234 47.0048 45.0867 46.9722 45.2387 46.9082C45.3906 46.8442 45.528 46.7502 45.6426 46.6317C45.8744 46.3954 46.0036 46.0773 46.0024 45.7463C46.0011 45.4154 45.8695 45.0983 45.6359 44.8637ZM6.53192 22.9296C6.53324 19.887 7.43679 16.9132 9.12832 14.384C10.8199 11.8549 13.2234 9.88398 16.0351 8.72057C18.8468 7.55715 21.9404 7.25343 24.9247 7.84782C27.909 8.4422 30.65 9.90799 32.8012 12.0599C34.9525 14.2118 36.4172 16.9531 37.0104 19.9373C37.6036 22.9215 37.2985 26.0145 36.1337 28.8253C34.9689 31.6362 32.9967 34.0385 30.4665 35.7288C27.9363 37.419 24.9617 38.3211 21.9187 38.3211C19.8976 38.3209 17.8963 37.9227 16.0291 37.149C14.162 36.3754 12.4655 35.2415 11.0366 33.8122C9.60779 32.3829 8.47453 30.6862 7.70161 28.8189C6.92868 26.9517 6.53121 24.9504 6.53192 22.9296Z" fill="#333333" class="cenco_icon_dark"/>
<path d="M22.2306 12.0543L11.6365 17.6183V28.4977L22.2306 33.8917L33.4743 28.4977V17.6183L22.2306 12.0543Z" fill="#A4C735" class="cenco_icon_dark_2"/>
<path d="M32.8769 17.0366L22.7382 11.903C22.4859 11.7768 22.2072 11.7121 21.9251 11.7142C21.6429 11.7163 21.3652 11.7851 21.1148 11.915L16.7935 14.2093C16.7545 14.2253 16.7169 14.2446 16.681 14.2669L11.457 17.0393C11.1674 17.1886 10.9247 17.4149 10.7555 17.6933C10.5863 17.9716 10.4971 18.2913 10.4979 18.617V28.153C10.4971 28.4783 10.586 28.7975 10.7547 29.0755C10.9234 29.3536 11.1655 29.5799 11.4543 29.7294L21.1938 34.8952C21.4374 35.0057 21.7023 35.061 21.9698 35.0573C22.2372 35.0536 22.5005 34.991 22.7409 34.8738L32.8809 29.7375C33.1756 29.5891 33.4235 29.362 33.597 29.0814C33.7706 28.8008 33.863 28.4776 33.8641 28.1477V18.6251C33.8622 18.295 33.769 17.9719 33.5948 17.6915C33.4205 17.4111 33.1721 17.1845 32.8769 17.0366ZM21.9386 13.4539L31.086 18.088L27.8444 19.6952L27.7828 19.663L18.993 15.0115L21.9386 13.4539ZM21.0598 32.8541L12.25 28.1798V19.5505L21.0598 24.1444V32.8541ZM21.9426 22.635L21.8823 22.6042L13.2104 18.084L17.1298 16.0027L25.9196 20.6528L21.9426 22.635ZM32.1228 19.7313L32.1161 28.1691L32.0437 28.2039L22.8012 32.8836V24.1525L22.8749 24.1163L26.8197 22.1569V24.1351C26.8285 24.3609 26.9245 24.5746 27.0874 24.7312C27.2504 24.8879 27.4677 24.9754 27.6937 24.9754C27.9198 24.9754 28.1371 24.8879 28.3 24.7312C28.4629 24.5746 28.5589 24.3609 28.5677 24.1351V21.2836L32.1214 19.5144L32.1228 19.7313Z" fill="#333333" class="cenco_icon_dark"/>
</g>
<defs>
<clipPath id="clip9999">
<rect width="42" height="42" fill="white" transform="translate(4 5)"/>
</clipPath>
</defs>
</svg>
