<svg width="32" height="20" viewBox="0 0 32 20" fill="none" xmlns="http://www.w3.org/2000/svg">
<mask id="mask0_2514_106941" style="mask-type:luminance" maskUnits="userSpaceOnUse" x="0" y="0" width="32" height="20">
<path d="M3.84914 0H28.151C30.2643 0 32 1.70369 32 3.77776V16.2222C32 18.2963 30.2643 20 28.151 20H3.84914C1.73593 20 0 18.2963 0 16.2222V3.77776C0 1.70369 1.66045 0 3.84914 0Z" fill="white"/>
</mask>
<g mask="url(#mask0_2514_106941)">
<mask id="mask1_2514_106941" style="mask-type:luminance" maskUnits="userSpaceOnUse" x="-6" y="-4" width="43" height="27">
<path d="M0.755035 -3.77734H30.5664C33.8872 -3.77734 36.6042 -2.14771 36.6042 -0.0736399V18.2967C36.6042 20.3708 33.8872 22.0004 30.5664 22.0004H0.755035C-2.56573 22.0004 -5.28271 20.3708 -5.28271 18.2967V-0.0736399C-5.28271 -2.14771 -2.56573 -3.77734 0.755035 -3.77734Z" fill="white"/>
</mask>
<g mask="url(#mask1_2514_106941)">
<path d="M36.6042 -3.77734H-5.28271V22.0004H36.6042V-3.77734Z" fill="#0500C4"/>
</g>
</g>
<path d="M5.78468 4.40756C5.90578 4.28943 6.04404 4.19953 6.19456 4.14071C6.49805 4.02259 6.82213 4.02259 7.12513 4.14071C7.27565 4.19953 7.41342 4.28943 7.53598 4.4085L7.92331 4.77434L8.67444 4.02976L8.2979 3.6625C8.07236 3.44205 7.81152 3.27611 7.52568 3.16995C6.9648 2.94375 6.35684 2.94327 5.78468 3.16899C5.50325 3.27611 5.24634 3.44205 5.02033 3.6625C4.79479 3.88248 4.62465 4.13306 4.51483 4.40802C4.40551 4.68108 4.3501 4.96801 4.3501 5.26116C4.3501 5.55429 4.40551 5.83166 4.51483 6.10472C4.62465 6.3792 4.7943 6.62978 5.02033 6.85024C5.24586 7.07021 5.50227 7.23903 5.78517 7.35332C6.0715 7.45996 6.36518 7.51351 6.65886 7.51351C6.95255 7.51351 7.24328 7.45948 7.52471 7.35236C7.81202 7.23903 8.07236 7.06974 8.2974 6.85024L8.67394 6.48298L7.92282 5.7384L7.53255 6.10711C7.41831 6.22426 7.28397 6.31369 7.13444 6.37204C6.98344 6.43085 6.8231 6.46098 6.65935 6.46098C6.31566 6.46098 6.02982 6.3443 5.78418 6.1052C5.66308 5.98707 5.57092 5.85222 5.51061 5.7054C5.45031 5.55668 5.41892 5.40414 5.41892 5.25112C5.41892 5.09808 5.44981 4.94554 5.51061 4.79682C5.57042 4.65096 5.66211 4.52137 5.78468 4.40756Z" fill="white"/>
<path d="M12.9107 3.66232C12.6852 3.44234 12.4243 3.27593 12.1385 3.16976C11.5776 2.94357 10.9692 2.94357 10.3975 3.16881C10.116 3.27641 9.85865 3.44234 9.63361 3.66232C9.40758 3.8823 9.23745 4.13288 9.12763 4.40736C9.0183 4.6809 8.96289 4.96448 8.96289 5.25093C8.96289 5.53737 9.0183 5.82382 9.12763 6.10406C9.23745 6.37855 9.40758 6.62912 9.63361 6.84959C9.85227 7.06287 10.1053 7.2288 10.3862 7.34213C10.6666 7.45548 10.9647 7.51285 11.2727 7.51285C11.5805 7.51285 11.8787 7.45548 12.1591 7.34213C12.4395 7.2288 12.6925 7.06287 12.9116 6.84959L13.2882 6.48184L12.5248 5.73726L12.1483 6.10453C11.9507 6.29677 11.7271 6.41058 11.4653 6.45171C11.404 6.46032 11.3427 6.46462 11.2835 6.46462C11.1417 6.46462 11.002 6.43975 10.8671 6.39146L13.2887 4.02958L12.9122 3.66232H12.9107ZM11.2559 4.0468C11.4006 4.0468 11.5413 4.07119 11.6771 4.11997C11.5987 4.19504 11.5021 4.2859 11.3878 4.39303L10.1028 5.64641C10.0557 5.51969 10.0317 5.38722 10.0317 5.25093C10.0317 4.91618 10.1514 4.6369 10.3965 4.39733C10.5896 4.20843 10.8162 4.09462 11.0686 4.05971C11.1319 4.0511 11.1947 4.0468 11.2559 4.0468Z" fill="white"/>
<path d="M17.5274 3.66226C17.3147 3.4552 17.065 3.29261 16.7875 3.1807C16.2443 2.94209 15.5565 2.93778 14.9921 3.17976C14.7116 3.29309 14.4617 3.45568 14.2499 3.66226C14.0449 3.86263 13.8787 4.10222 13.7551 4.37623C13.6384 4.64403 13.5796 4.93812 13.5796 5.25135V7.51281H14.6582V5.25135C14.6582 5.0859 14.6886 4.93048 14.7484 4.79084C14.8156 4.6426 14.9043 4.51347 15.0132 4.40732C15.128 4.29493 15.2598 4.20838 15.4064 4.1486C15.7084 4.01997 16.0658 4.01853 16.3738 4.15004C16.5237 4.20838 16.6542 4.29493 16.766 4.40923C16.8792 4.51395 16.9675 4.64164 17.0293 4.79227C17.095 4.93287 17.1288 5.08733 17.1288 5.25135V7.51281H18.2074V5.25135C18.2074 4.93764 18.1446 4.6426 18.0221 4.37719C17.9059 4.10317 17.7392 3.86263 17.5274 3.66226Z" fill="white"/>
<path d="M19.9692 4.40736C20.0903 4.28925 20.2281 4.19934 20.3791 4.14053C20.6821 4.02241 21.0057 4.02241 21.3097 4.14053C21.4602 4.19934 21.5984 4.28925 21.7211 4.40833L22.1083 4.77416L22.8594 4.02958L22.483 3.66232C22.2573 3.44187 21.9966 3.27593 21.7108 3.16976C21.1499 2.94357 20.5413 2.94357 19.9697 3.16881C19.6883 3.27593 19.4314 3.44187 19.2053 3.66232C18.9798 3.8823 18.8092 4.13336 18.6999 4.40784C18.5906 4.6809 18.5352 4.96783 18.5352 5.26097C18.5352 5.55411 18.5906 5.83147 18.6999 6.10453C18.8097 6.37855 18.9794 6.6296 19.2053 6.85007C19.4309 7.07003 19.6872 7.23837 19.9701 7.35313C20.2566 7.45978 20.5502 7.51333 20.8439 7.51333C21.1376 7.51333 21.4283 7.4593 21.7097 7.35218C21.9971 7.23885 22.2573 7.06955 22.4825 6.85007L22.859 6.48279L22.1079 5.73822L21.7175 6.10692C21.6033 6.22408 21.4694 6.31351 21.319 6.37185C21.1679 6.43067 21.0081 6.4608 20.8439 6.4608C20.5002 6.4608 20.2139 6.34412 19.9687 6.10501C19.8471 5.98689 19.7554 5.85204 19.6951 5.70523C19.6343 5.55698 19.6035 5.40443 19.6035 5.25093C19.6035 5.09742 19.6343 4.94487 19.6951 4.79663C19.755 4.65077 19.8467 4.52118 19.9692 4.40736Z" fill="white"/>
<path d="M27.0948 3.66232C26.8824 3.45526 26.6324 3.29266 26.3554 3.18077C25.8116 2.94214 25.1242 2.93784 24.56 3.17933C24.2795 3.29267 24.0294 3.45526 23.8172 3.66232C23.6123 3.86222 23.4461 4.1018 23.3229 4.37629C23.2063 4.64408 23.1475 4.93818 23.1475 5.25142C23.1475 5.56464 23.2063 5.85204 23.3234 6.12749C23.4461 6.3996 23.6117 6.64204 23.8176 6.85006C24.0294 7.05618 24.2791 7.22164 24.5604 7.34262C24.8409 7.45596 25.1424 7.51335 25.4567 7.51335C25.771 7.51335 26.0799 7.45596 26.3549 7.34166C26.6343 7.22211 26.8835 7.05713 27.0957 6.85006C27.308 6.64252 27.4747 6.39912 27.5899 6.12749C27.7129 5.853 27.7757 5.55842 27.7757 5.25142C27.7757 4.9444 27.7129 4.64266 27.5909 4.37725C27.4742 4.10276 27.3061 3.86174 27.0948 3.66232ZM26.6971 5.25142C26.6971 5.41639 26.6638 5.57468 26.5961 5.72483C26.5358 5.87165 26.4476 6.00268 26.3323 6.11458C26.224 6.22074 26.0911 6.30778 25.9421 6.37186C25.6391 6.48997 25.2723 6.48854 24.9752 6.37329C24.8222 6.3073 24.686 6.21978 24.5741 6.11649C24.4644 6.00363 24.3746 5.87069 24.3085 5.72483C24.2477 5.57659 24.2167 5.41735 24.2167 5.25142C24.2167 5.08547 24.2477 4.93053 24.3069 4.79138C24.3742 4.64266 24.4633 4.51354 24.5723 4.40786C24.6865 4.29595 24.8213 4.20987 24.9748 4.14962C25.1258 4.08458 25.2875 4.05206 25.4571 4.05206C25.6268 4.05206 25.7887 4.08506 25.9421 4.15106C26.0921 4.20939 26.223 4.29547 26.3343 4.40977C26.4481 4.51497 26.5358 4.64217 26.5981 4.79281C26.6638 4.93292 26.6971 5.08692 26.6971 5.25142Z" fill="white"/>
<path d="M19.5587 11.7611V8.36986H17.9822V8.83419C17.3949 8.43845 16.6823 8.20703 15.9149 8.20703C13.9024 8.20703 12.271 9.79829 12.271 11.7611C12.271 13.7241 13.9024 15.3153 15.9149 15.3153C16.6823 15.3153 17.3949 15.0838 17.9822 14.6881V15.1525H19.5587V11.7611ZM15.9149 13.7776C14.7734 13.7776 13.8476 12.8745 13.8476 11.7611C13.8476 10.6478 14.7734 9.74477 15.9149 9.74477C17.0564 9.74477 17.9822 10.6478 17.9822 11.7611C17.9822 12.8745 17.0564 13.7776 15.9149 13.7776Z" fill="#FFAC2C"/>
<path d="M26.2 8.37207V11.7634C26.2 12.8767 25.2741 13.7798 24.1327 13.7798C22.9913 13.7798 22.0654 12.8767 22.0654 11.7634V8.37207H20.4888V11.7634C20.4888 12.9777 21.1133 14.0497 22.0654 14.6903C22.6527 15.086 23.3653 15.3175 24.1327 15.3175C24.9001 15.3175 25.6127 15.086 26.2 14.6903C26.1908 15.7961 25.2687 16.6902 24.1327 16.6902V16.6871H23.4302V18.2279H24.1327C24.9001 18.2279 25.6127 17.9964 26.2 17.6007C27.1522 16.9592 27.7766 15.8874 27.7766 14.6738V8.37207H26.2Z" fill="#00C7F9"/>
<path d="M7.99398 8.20703C6.09824 8.20703 4.52398 9.61963 4.3501 11.4242V18.2075H5.92667V14.6881C6.51402 15.0838 7.22656 15.3153 7.99398 15.3153C10.0064 15.3153 11.6378 13.7241 11.6378 11.7611C11.6378 9.79829 10.0064 8.20703 7.99398 8.20703ZM7.99398 13.7776C6.85252 13.7776 5.92667 12.8745 5.92667 11.7611C5.92667 10.6471 6.85252 9.74477 7.99398 9.74477C9.13545 9.74477 10.0613 10.6478 10.0613 11.7611C10.0613 12.8745 9.13545 13.7776 7.99398 13.7776Z" fill="#F04B67"/>
</svg>
